# xmcd
#
# Track frame offsets: 
#        150
#        12160
#        23716
#        36316
#        47581
#        59280
#        72917
#        85100
#        97385
#        108678
#        118046
#        130056
#        140043
#        150137
#        161755
#        171900
#        182221
#        192700
#        205378
#        218741
#        230013
#        241720
#        253806
#        267275
#        279001
#
# Disc length: 3889 seconds
#
# Revision: 3
# Processed by: cddbd v1.5.2PL0 Copyright (c) Steve Scherf et al.
# Submitted via: ExactAudioCopy v1.0b3
#
DISCID=6d0f2f19
DTITLE=Various Artist - The Roots Of Rockabilly 1940-1953 [Disc 1]
DYEAR=2004
DGENRE=Rockabilly
TTITLE0=Scott, Tommy - Rockin' And Rollin'
TTITLE1=Carlisles, The - T'Ain't Nice To Talk Like That
TTITLE2=Lane, Jimmie - Firecracker Stomp
TTITLE3=Glenn, Darrell and His Rhythm Riders - Hang Up That Telephone
TTITLE4=Long, Shorty - I Got Nine Little Kisses
TTITLE5=Travis, Merle - Merle's Boogie Woogie
TTITLE6=Hawkins, Hawkshaw - Rattlesnake Daddy
TTITLE7=Gordon, Curtis - Rompin' And Stompin'
TTITLE8=McDaniel, Luke - Whoa Boy!
TTITLE9=Carlisles, The - Is Zat You, Myrtle ?
TTITLE10=Jones, Grandpa - Grandpa's Boogie
TTITLE11=Carlisles, The - Something Different
TTITLE12=Atkins, Chet - Oh By Jingo!
TTITLE13=Davis Sisters, The - Rock-A-Bye Boogie
TTITLE14=Shipley, Reece and His Rainbow Valley Boys - Hillbilly Jive Wit
TTITLE14=h A Boogie Beat
TTITLE15=Gunter, Hardrock - Perfect Woman
TTITLE16=Horton, Johnny and Billy Barton - Bawlin' Baby
TTITLE17=Scott, Tommy - Tennessee
TTITLE18=Delmore Brothers, The - Pan American Boogie
TTITLE19=Hughes, Billy and His Pecos Pals - Take Your Hands Off Of It!
TTITLE20=Clements, Zeke and His Western Swing Gang - It's My Life
TTITLE21=Foley, Red - Tennessee Saturday Night
TTITLE22=Maddox Brothers and Rose - New Mule Skinner Blues
TTITLE23=Monroe, Bill and His Blue Grass Boys - Rocky Road Blues
TTITLE24=Skinner, Jimmie - You're My Big Baby Now
EXTD=
EXTT0=
EXTT1=
EXTT2=
EXTT3=
EXTT4=
EXTT5=
EXTT6=
EXTT7=
EXTT8=
EXTT9=
EXTT10=
EXTT11=
EXTT12=
EXTT13=
EXTT14=
EXTT15=
EXTT16=
EXTT17=
EXTT18=
EXTT19=
EXTT20=
EXTT21=
EXTT22=
EXTT23=
EXTT24=
PLAYORDER=
